<svg width="21" height="21" viewBox="0 0 21 21" fill="none" xmlns="http://www.w3.org/2000/svg">
<path d="M12.8917 11.8489H12.3707C12.3707 12.2894 12.3707 12.6639 12.3841 13.051V13.0539C12.3841 14.8962 12.3841 16.7519 12.3707 18.5942C12.3707 19.3154 11.8899 19.9165 11.1953 20.1169C10.5141 20.3172 9.73941 20.0901 9.37877 19.4757C9.19177 19.1551 9.07156 18.7544 9.07156 18.3804C9.04485 16.3769 9.0582 14.3734 9.0582 12.3698V11.8489H8.56399C6.50702 11.8489 4.45004 11.8622 2.39307 11.8489C1.21766 11.8355 0.442953 10.7536 0.803591 9.6717C1.03066 8.97714 1.64508 8.53636 2.4465 8.53636H8.53728H9.0582V8.04215C9.0582 5.98518 9.04485 3.9282 9.0582 1.87122C9.07156 0.695811 10.1535 -0.0788984 11.2354 0.28174C11.9433 0.508809 12.3707 1.12323 12.3707 1.96472V8.01544V8.53636H12.8649C14.9219 8.53636 16.9789 8.523 19.0359 8.53636C20.2113 8.54971 20.986 9.63163 20.6254 10.7135C20.3983 11.4215 19.7839 11.8489 18.9424 11.8489H12.8917Z" fill="black"/>
</svg>
