<svg width="24" height="30" viewBox="0 0 24 30" fill="none" xmlns="http://www.w3.org/2000/svg">
<path d="M5.41515 30C5.05846 29.8127 4.66508 29.6722 4.35288 29.4279C3.93141 29.097 3.74877 28.6092 3.71287 28.0683C3.45999 24.2407 3.2032 20.4131 2.94798 16.5863C2.78407 14.1285 2.6186 11.6707 2.4547 9.21365C2.45001 9.14653 2.45392 9.07862 2.45392 8.9873C8.6316 8.9873 14.7999 8.9873 21.001 8.9873C20.9854 9.30809 20.9745 9.62498 20.9534 9.94186C20.7676 12.7205 20.5788 15.4983 20.3938 18.2761C20.2291 20.7534 20.0683 23.2307 19.9044 25.708C19.8498 26.5338 19.7983 27.3596 19.7304 28.1846C19.6648 28.9932 19.0622 29.6933 18.256 29.9274C18.1826 29.9485 18.1108 29.9758 18.039 30C13.8305 30 9.62284 30 5.41515 30ZM17.3358 14.628C17.3506 14.1035 16.9713 13.6688 16.4554 13.6407C15.9355 13.6118 15.5141 13.9981 15.4672 14.5437C15.429 14.9902 15.3892 15.4358 15.3509 15.8823C15.1839 17.7922 15.0169 19.7028 14.8506 21.6135C14.7453 22.8256 14.6313 24.037 14.5392 25.2506C14.4986 25.7853 14.8803 26.2146 15.3845 26.2583C15.9028 26.3028 16.3437 25.9258 16.4007 25.3849C16.4249 25.1523 16.4413 24.9197 16.4616 24.6871C16.6286 22.7765 16.7957 20.8666 16.9619 18.9559C17.086 17.519 17.2101 16.0836 17.3358 14.628ZM8.92038 25.2881C8.85404 24.5006 8.79316 23.763 8.72838 23.0262C8.4833 20.2242 8.2351 17.4214 7.99159 14.6194C7.93851 14.0044 7.53499 13.604 6.98552 13.6407C6.43916 13.6773 6.07701 14.1386 6.12384 14.7482C6.16053 15.2235 6.20501 15.6989 6.24638 16.1742C6.51409 19.2283 6.78181 22.2832 7.04796 25.3373C7.09713 25.9 7.52094 26.2934 8.04934 26.2575C8.56604 26.2224 8.93678 25.7869 8.92038 25.2881ZM10.792 19.9339C10.792 21.6869 10.7912 23.4391 10.792 25.1921C10.792 25.8345 11.1721 26.263 11.7333 26.2591C12.2828 26.2552 12.6613 25.8298 12.6613 25.2069C12.6621 21.7017 12.6621 18.1957 12.6606 14.6904C12.6606 14.5749 12.6567 14.4547 12.6286 14.3439C12.5099 13.8842 12.0775 13.5892 11.617 13.6438C11.1464 13.6992 10.7952 14.0887 10.7944 14.5882C10.7889 16.3701 10.792 18.152 10.792 19.9339Z" fill="white"/>
<path d="M16.8698 3.27323C17.004 3.27323 17.1086 3.27323 17.2132 3.27323C18.5666 3.27323 19.92 3.27167 21.2734 3.27401C22.5534 3.27636 23.412 4.13803 23.4159 5.41962C23.4174 5.93475 23.4159 6.45066 23.4159 6.98921C15.6288 6.98921 7.85576 6.98921 0 6.98921C0.0421472 6.2329 0.00312199 5.45708 0.149076 4.71717C0.321567 3.84144 1.16139 3.27948 2.07848 3.2748C3.46075 3.26777 4.8438 3.27323 6.22607 3.27245C6.33222 3.27245 6.43837 3.27245 6.58354 3.27245C6.58354 2.91186 6.58354 2.5661 6.58354 2.21956C6.58432 0.838065 7.41946 0.000585377 8.79861 0.000585377C10.7655 -0.000195126 12.7316 -0.000195126 14.6984 0.000585377C16.0167 0.00136588 16.8675 0.855236 16.8698 2.17663C16.8706 2.52707 16.8698 2.87674 16.8698 3.27323ZM11.6997 3.27323C12.6933 3.27323 13.6861 3.26777 14.6797 3.27714C14.9193 3.27948 15.0177 3.20065 15.0036 2.95635C14.9888 2.70425 14.9872 2.44902 15.0044 2.1977C15.0223 1.93467 14.9092 1.8613 14.661 1.86677C14.067 1.88004 13.473 1.87067 12.8791 1.87067C11.5155 1.87067 10.1528 1.87535 8.78924 1.86599C8.53636 1.86443 8.43333 1.94326 8.45051 2.2016C8.4669 2.45371 8.46612 2.70815 8.45051 2.96025C8.43568 3.20845 8.54339 3.2787 8.77832 3.27636C9.75238 3.26777 10.7257 3.27323 11.6997 3.27323Z" fill="white"/>
</svg>
