<svg width="30" height="30" viewBox="0 0 30 30" fill="none" xmlns="http://www.w3.org/2000/svg">
<path d="M2.93043 30.0002C2.3428 29.7914 1.7675 29.5633 1.29435 29.1347C0.452537 28.3722 0.00345307 27.4286 0.00286603 26.2892C-0.000656197 20.4593 -0.00124324 14.6301 0.00286603 8.80021C0.00462715 6.69779 1.64775 5.02574 3.747 5.01633C7.0573 5.00104 10.367 5.00986 13.6773 5.01398C14.4505 5.01515 15.007 5.55898 14.9993 6.28213C14.9923 6.99234 14.4375 7.51912 13.6779 7.51971C10.4363 7.52265 7.19467 7.52089 3.95246 7.52089C2.98619 7.52089 2.506 7.99417 2.506 8.95131C2.50541 14.6736 2.50541 20.3952 2.506 26.1175C2.506 27.0688 2.97856 27.5485 3.92076 27.5491C9.64262 27.5503 15.3645 27.5503 21.0863 27.5491C22.0197 27.5491 22.4999 27.0582 22.4999 26.1116C22.5005 22.8545 22.4982 19.5974 22.5017 16.3403C22.5029 15.4238 23.3188 14.817 24.1542 15.0998C24.6802 15.278 25.0001 15.7483 25.0031 16.3733C25.0083 17.4686 25.0048 18.5645 25.0048 19.6598C25.0048 21.7728 25.0048 23.8852 25.0048 25.9982C25.0048 28.0577 24.0462 29.357 22.0784 29.9667C22.0608 29.9719 22.0467 29.9884 22.0315 30.0002C15.6639 30.0002 9.29685 30.0002 2.93043 30.0002Z" fill="white"/>
<path d="M29.9993 3.53002C29.8379 4.53184 29.2403 5.2591 28.5223 5.91993C28.1284 6.28268 27.7633 6.67776 27.4128 7.03052C25.9399 5.55483 24.4806 4.09325 22.9954 2.6058C23.0271 2.57288 23.1034 2.48939 23.1832 2.40943C23.6587 1.93204 24.1313 1.45112 24.6127 0.979013C25.5096 0.0977151 26.5786 -0.217412 27.7815 0.151804C28.9814 0.520433 29.7034 1.36646 29.95 2.60756C29.957 2.64284 29.9823 2.67459 29.9993 2.7081C29.9993 2.98207 29.9993 3.25604 29.9993 3.53002Z" fill="white"/>
<path d="M21.5941 4.01501C23.0723 5.496 24.5276 6.95405 25.9987 8.42797C25.9476 8.48383 25.8866 8.55555 25.8202 8.62199C22.6449 11.8038 19.4714 14.988 16.2855 18.1593C16.1047 18.3392 15.8359 18.4779 15.5858 18.532C14.2327 18.8236 12.8719 19.0829 11.5141 19.3534C10.9323 19.4692 10.5666 19.117 10.6811 18.5426C10.9635 17.1251 11.2452 15.7076 11.5411 14.2925C11.5752 14.1308 11.6644 13.9562 11.78 13.8398C15.0193 10.5839 18.2656 7.33443 21.5108 4.0838C21.539 4.05735 21.5701 4.035 21.5941 4.01501Z" fill="white"/>
</svg>