<!-- Generator: Adobe Illustrator 23.1.0, SVG Export Plug-In  -->
<svg version="1.1" xmlns="http://www.w3.org/2000/svg" xmlns:xlink="http://www.w3.org/1999/xlink" x="0px" y="0px" width="21.58px"
	 height="21.58px" viewBox="0 0 21.58 21.58" style="enable-background:new 0 0 21.58 21.58;" xml:space="preserve">
<style type="text/css">
	.st0{fill:#636363;stroke:#000000;stroke-miterlimit:10;}
</style>
<defs>
</defs>
<g>
	<path class="st0" d="M19,8.74c-0.29,0-0.47-0.14-0.56-0.42c-0.13-0.41-0.3-0.81-0.5-1.2c-0.12-0.25-0.09-0.51,0.11-0.71
		c0.34-0.34,0.68-0.67,1.02-1.01c0.15-0.15,0.3-0.3,0.44-0.44c-0.96-0.97-1.92-1.93-2.89-2.9c-0.02,0.02-0.03,0.05-0.05,0.07
		c-0.47,0.47-0.94,0.94-1.41,1.4c-0.19,0.2-0.44,0.22-0.62,0.14C14.37,3.6,14.2,3.5,14.02,3.43c-0.25-0.11-0.51-0.21-0.77-0.3
		c-0.26-0.08-0.41-0.27-0.41-0.53V0.58c0-0.03-0.01-0.05-0.01-0.08H8.75v2.11c0,0.22-0.13,0.43-0.34,0.5
		c-0.46,0.15-0.9,0.33-1.33,0.55C7.02,3.69,6.95,3.7,6.88,3.71C6.67,3.73,6.52,3.63,6.37,3.49C5.92,3.03,5.46,2.58,5.01,2.12
		C4.99,2.1,4.97,2.09,4.96,2.08C4,3.04,3.04,4,2.08,4.96C2.19,5.07,2.3,5.17,2.41,5.28c0.37,0.38,0.75,0.76,1.13,1.13
		c0.2,0.21,0.21,0.45,0.14,0.63C3.6,7.21,3.51,7.38,3.44,7.55c-0.11,0.26-0.21,0.52-0.3,0.78C3.06,8.59,2.87,8.74,2.6,8.74H0.5v4.09
		h2.1c0.26,0,0.45,0.15,0.54,0.4c0.12,0.34,0.26,0.67,0.4,1.01c0.05,0.11,0.12,0.22,0.15,0.33c0.08,0.25-0.01,0.45-0.19,0.63
		c-0.41,0.4-0.82,0.82-1.23,1.23c-0.07,0.06-0.14,0.12-0.2,0.18c0.98,0.97,1.93,1.93,2.9,2.9c0.02-0.02,0.03-0.05,0.05-0.07
		c0.47-0.46,0.93-0.93,1.4-1.4c0.2-0.2,0.43-0.22,0.62-0.14c0.18,0.07,0.34,0.17,0.52,0.24c0.26,0.11,0.52,0.21,0.78,0.3
		c0.25,0.08,0.41,0.27,0.41,0.53v2.11h4.08c0-0.03,0.01-0.06,0.01-0.09v-2.02c0-0.25,0.15-0.46,0.39-0.53
		c0.42-0.12,0.82-0.29,1.21-0.49c0.28-0.14,0.51-0.12,0.74,0.1l1.02,1.02c0.14,0.15,0.28,0.29,0.42,0.44
		c0.97-0.97,1.93-1.93,2.89-2.9c-0.07-0.06-0.14-0.13-0.21-0.2c-0.42-0.42-0.83-0.83-1.25-1.25c-0.17-0.17-0.23-0.38-0.15-0.62
		c0.04-0.1,0.1-0.19,0.14-0.3c0.14-0.32,0.29-0.65,0.4-0.99c0.09-0.27,0.32-0.42,0.58-0.42c0.65,0.01,1.31,0,1.97,0h0.09V8.74H19z
		 M10.59,15.93c-2.68-0.1-4.75-2.22-4.93-4.76c-0.07-1,0.13-1.96,0.61-2.84c0.45-0.84,1.09-1.5,1.91-1.98
		c0.81-0.48,1.68-0.71,2.62-0.71c2.85,0.01,5.04,2.28,5.14,4.95C16.05,13.59,13.6,16.05,10.59,15.93z"/>
</g>
</svg>
